<svg width="54" height="53" viewBox="0 0 54 53" fill="none" xmlns="http://www.w3.org/2000/svg">
<path d="M31.853 50.4525H51.9993" stroke="#7D75D8" stroke-width="3.5" stroke-linecap="round" stroke-linejoin="round"/>
<path fill-rule="evenodd" clip-rule="evenodd" d="M29.1669 4.20777C31.3214 1.63274 35.1946 1.25515 37.8231 3.36593C37.9684 3.48045 42.6377 7.10778 42.6377 7.10778C45.5252 8.85335 46.4224 12.5642 44.6375 15.3962C44.5427 15.5478 18.1444 48.5683 18.1444 48.5683C17.2661 49.6639 15.933 50.3108 14.5082 50.3262L4.3987 50.4531L2.12092 40.8122C1.80184 39.4566 2.12092 38.0329 2.99918 36.9373L29.1669 4.20777Z" stroke="#7D75D8" stroke-width="3.5" stroke-linecap="round" stroke-linejoin="round"/>
<path fill-rule="evenodd" clip-rule="evenodd" d="M22.6274 9.0666C23.3282 8.15405 24.6361 7.9824 25.5487 8.6832L40.6939 20.3142C41.6064 21.015 41.7781 22.3229 41.0773 23.2354C40.3765 24.148 39.0686 24.3196 38.156 23.6188L23.0108 11.9878C22.0983 11.287 21.9266 9.97916 22.6274 9.0666Z" fill="#7D75D8"/>
</svg>
