<svg width="56" height="56" viewBox="0 0 56 56" fill="none" xmlns="http://www.w3.org/2000/svg">
<path d="M26.8152 6.50757H18.0909C10.9159 6.50757 6.41724 11.5872 6.41724 18.7786V38.1779C6.41724 45.3692 10.8949 50.4489 18.0909 50.4489H38.6802C45.8786 50.4489 50.3562 45.3692 50.3562 38.1779V28.7792" stroke="#7D75D8" stroke-width="3.5" stroke-linecap="round" stroke-linejoin="round"/>
<path fill-rule="evenodd" clip-rule="evenodd" d="M20.5977 25.4821L38.0347 8.0451C40.2071 5.8751 43.7281 5.8751 45.9004 8.0451L48.7401 10.8848C50.9124 13.0571 50.9124 16.5804 48.7401 18.7504L31.2191 36.2714C30.2694 37.2211 28.9814 37.7554 27.6374 37.7554H18.8967L19.1161 28.9354C19.1487 27.6381 19.6784 26.4014 20.5977 25.4821Z" stroke="#7D75D8" stroke-width="3.5" stroke-linecap="round" stroke-linejoin="round"/>
<path d="M35.385 10.739L46.039 21.393" stroke="#7D75D8" stroke-width="3.5" stroke-linecap="round" stroke-linejoin="round"/>
</svg>
