<svg width="56" height="56" viewBox="0 0 56 56" fill="none" xmlns="http://www.w3.org/2000/svg">
<path d="M32.0762 47.6999H48.9989" stroke="#7D75D8" stroke-width="3.5" stroke-linecap="round" stroke-linejoin="round"/>
<path fill-rule="evenodd" clip-rule="evenodd" d="M29.82 8.85452C31.6298 6.6915 34.8833 6.37433 37.0912 8.14738C37.2133 8.24357 41.1355 11.2905 41.1355 11.2905C43.5609 12.7568 44.3146 15.8739 42.8153 18.2527C42.7356 18.3801 20.5612 46.1171 20.5612 46.1171C19.8235 47.0374 18.7036 47.5808 17.5068 47.5938L9.0149 47.7004L7.10157 39.6021C6.83355 38.4634 7.10157 37.2675 7.8393 36.3471L29.82 8.85452Z" stroke="#7D75D8" stroke-width="3.5" stroke-linecap="round" stroke-linejoin="round"/>
<path fill-rule="evenodd" clip-rule="evenodd" d="M24.327 12.9359C24.9157 12.1694 26.0143 12.0252 26.7808 12.6139L39.5027 22.3838C40.2693 22.9725 40.4135 24.0711 39.8248 24.8376C39.2361 25.6042 38.1375 25.7484 37.3709 25.1597L24.649 15.3897C23.8825 14.8011 23.7383 13.7024 24.327 12.9359Z" fill="#7D75D8"/>
</svg>
